<svg width="30" height="30" viewBox="0 0 30 30" fill="none" xmlns="http://www.w3.org/2000/svg">
<path d="M16.875 0C17.9121 0 18.75 0.839648 18.75 1.875V5.625C18.75 6.66211 17.9121 7.5 16.875 7.5H12.1875V9.375H24.8496C26.7539 9.375 28.3301 10.7285 28.6055 12.5625L29.9355 21.334C29.9766 21.6094 30 21.8906 30 22.1719V26.25C30 28.3184 28.3184 30 26.25 30H3.75C1.67871 30 0 28.3184 0 26.25V22.1719C0 21.8906 0.0212109 21.6094 0.063457 21.334L1.39219 12.5625C1.66992 10.7285 3.24551 9.375 5.09941 9.375H8.38477V7.5H3.69727C2.71465 7.5 1.82227 6.66211 1.82227 5.625V1.875C1.82227 0.839648 2.71465 0 3.69727 0H16.875ZM5.625 2.8125C5.10703 2.8125 4.6875 3.23203 4.6875 3.75C4.6875 4.26797 5.10703 4.6875 5.625 4.6875H15C15.5156 4.6875 15.9375 4.26797 15.9375 3.75C15.9375 3.23203 15.5156 2.8125 15 2.8125H5.625ZM4.6875 26.25H25.3125C25.8281 26.25 26.25 25.8281 26.25 25.3125C26.25 24.7969 25.8281 24.375 25.3125 24.375H4.6875C4.16953 24.375 3.75 24.7969 3.75 25.3125C3.75 25.8281 4.16953 26.25 4.6875 26.25ZM6.5625 12.6562C5.78613 12.6562 5.15625 13.2832 5.15625 14.0625C5.15625 14.8418 5.78613 15.4688 6.5625 15.4688C7.3418 15.4688 7.96875 14.8418 7.96875 14.0625C7.96875 13.2832 7.3418 12.6562 6.5625 12.6562ZM12.1875 15.4688C12.9668 15.4688 13.5938 14.8418 13.5938 14.0625C13.5938 13.2832 12.9668 12.6562 12.1875 12.6562C11.4082 12.6562 10.7812 13.2832 10.7812 14.0625C10.7812 14.8418 11.4082 15.4688 12.1875 15.4688ZM9.375 17.3438C8.5957 17.3438 7.96875 17.9707 7.96875 18.75C7.96875 19.5293 8.5957 20.1562 9.375 20.1562C10.1543 20.1562 10.7812 19.5293 10.7812 18.75C10.7812 17.9707 10.1543 17.3438 9.375 17.3438ZM17.8125 15.4688C18.5918 15.4688 19.2188 14.8418 19.2188 14.0625C19.2188 13.2832 18.5918 12.6562 17.8125 12.6562C17.0332 12.6562 16.4062 13.2832 16.4062 14.0625C16.4062 14.8418 17.0332 15.4688 17.8125 15.4688ZM15 17.3438C14.2207 17.3438 13.5938 17.9707 13.5938 18.75C13.5938 19.5293 14.2207 20.1562 15 20.1562C15.7793 20.1562 16.4062 19.5293 16.4062 18.75C16.4062 17.9707 15.7793 17.3438 15 17.3438ZM23.4375 15.4688C24.2168 15.4688 24.8438 14.8418 24.8438 14.0625C24.8438 13.2832 24.2168 12.6562 23.4375 12.6562C22.6582 12.6562 22.0312 13.2832 22.0312 14.0625C22.0312 14.8418 22.6582 15.4688 23.4375 15.4688ZM20.625 17.3438C19.8457 17.3438 19.2188 17.9707 19.2188 18.75C19.2188 19.5293 19.8457 20.1562 20.625 20.1562C21.4043 20.1562 22.0312 19.5293 22.0312 18.75C22.0312 17.9707 21.4043 17.3438 20.625 17.3438Z" fill="#4D7471"/>
</svg>
