<svg width="30" height="30" viewBox="0 0 30 30" fill="none" xmlns="http://www.w3.org/2000/svg">
<g clip-path="url(#clip0_1_14)">
<path fill-rule="evenodd" clip-rule="evenodd" d="M26.25 8.4375V26.25C26.25 27.2446 25.8549 28.1984 25.1516 28.9017C24.4484 29.6049 23.4946 30 22.5 30V28.125C22.9973 28.125 23.4742 27.9275 23.8258 27.5758C24.1775 27.2242 24.375 26.7473 24.375 26.25V8.4375H20.625C19.8791 8.4375 19.1637 8.14118 18.6363 7.61374C18.1088 7.08629 17.8125 6.37092 17.8125 5.625V1.875H7.5C7.00272 1.875 6.52581 2.07254 6.17417 2.42417C5.82254 2.77581 5.625 3.25272 5.625 3.75V20.625H3.75V3.75C3.75 2.75544 4.14509 1.80161 4.84835 1.09835C5.55161 0.395088 6.50544 0 7.5 0L17.8125 0L26.25 8.4375ZM11.5519 25.6238V26.6025C11.5519 27.0825 11.4788 27.4838 11.3325 27.8044C11.208 28.101 10.9978 28.3537 10.7288 28.53C10.4637 28.69 10.1589 28.7718 9.84937 28.7663C9.53866 28.7719 9.23262 28.6901 8.96625 28.53C8.69941 28.353 8.4907 28.1013 8.36625 27.8063C8.20853 27.4251 8.13375 27.0148 8.14687 26.6025V25.6238C8.14687 25.1419 8.22187 24.7406 8.36625 24.4219C8.49039 24.1262 8.69912 23.8737 8.96625 23.6963C9.23141 23.5328 9.53792 23.4488 9.84937 23.4544C10.1794 23.4544 10.4719 23.535 10.7288 23.6981C10.9975 23.874 11.2077 24.1259 11.3325 24.4219C11.4788 24.7406 11.5519 25.1419 11.5519 25.6238V25.6238ZM13.0575 26.5969V25.635C13.0575 24.9281 12.93 24.3225 12.6731 23.8125C12.4324 23.3165 12.0474 22.9048 11.5688 22.6313C11.0925 22.3556 10.5187 22.2188 9.84937 22.2188C9.18375 22.2188 8.60813 22.3556 8.12438 22.6313C7.64514 22.9015 7.25984 23.3117 7.02 23.8069C6.765 24.315 6.63563 24.9244 6.63563 25.635V26.5969C6.63563 27.3 6.765 27.9094 7.02 28.4213C7.27687 28.9294 7.64438 29.3213 8.12625 29.5969C8.60813 29.8669 9.18375 30.0019 9.85125 30.0019C10.5206 30.0019 11.0925 29.8669 11.5688 29.5969C12.0488 29.3213 12.4163 28.9294 12.675 28.4213C12.93 27.9075 13.0575 27.3 13.0575 26.5969V26.5969ZM0 22.3613V29.8613H2.73562C3.48938 29.8613 4.11375 29.7113 4.60875 29.415C5.10967 29.1153 5.50083 28.6623 5.72437 28.1231C5.96812 27.5606 6.09188 26.8819 6.09188 26.0906C6.09188 25.3031 5.97 24.6319 5.72437 24.075C5.50298 23.5417 5.11488 23.0944 4.61813 22.8C4.125 22.5075 3.49687 22.3613 2.73562 22.3613H0V22.3613ZM1.48313 23.5706H2.53875C3.00375 23.5706 3.3825 23.6644 3.68063 23.8556C3.99007 24.058 4.22354 24.3574 4.34437 24.7069C4.4925 25.0838 4.56562 25.5544 4.56562 26.1188C4.57144 26.4927 4.52858 26.8658 4.43813 27.2288C4.37127 27.5149 4.24617 27.7843 4.07063 28.02C3.90749 28.2303 3.69134 28.3933 3.44438 28.4925C3.155 28.6008 2.84765 28.653 2.53875 28.6463H1.48125V23.5688L1.48313 23.5706ZM15.3994 24.4763C15.2617 24.8564 15.1962 25.2589 15.2062 25.6631V26.5913C15.2062 27.0525 15.27 27.4444 15.3994 27.7669C15.5071 28.0632 15.7018 28.3201 15.9581 28.5038C16.2256 28.6734 16.5378 28.7589 16.8544 28.7494C17.1146 28.7553 17.3724 28.6987 17.6063 28.5844C17.8154 28.478 17.9922 28.3174 18.1181 28.1194C18.2453 27.913 18.3206 27.6788 18.3375 27.4369H19.7719V27.5794C19.754 28.0324 19.607 28.4709 19.3481 28.8431C19.0913 29.2069 18.7481 29.49 18.3169 29.6944C17.8548 29.9059 17.3512 30.011 16.8431 30.0019C16.1681 30.0019 15.5981 29.8669 15.1294 29.5969C14.6614 29.3228 14.2879 28.9128 14.0588 28.4213C13.815 27.9113 13.695 27.3019 13.695 26.5913V25.6575C13.695 24.9469 13.8187 24.3356 14.0644 23.8238C14.3081 23.31 14.6662 22.9144 15.135 22.6369C15.6075 22.3575 16.1775 22.2188 16.8431 22.2188C17.2537 22.2188 17.6325 22.2788 17.9813 22.4006C18.3319 22.5169 18.6375 22.6875 18.8981 22.9106C19.1614 23.1346 19.3751 23.411 19.5256 23.7223C19.676 24.0335 19.7599 24.3727 19.7719 24.7181V24.855H18.3375C18.32 24.603 18.2429 24.3588 18.1125 24.1425C17.9899 23.9356 17.8129 23.7663 17.6006 23.6531C17.3718 23.5289 17.1147 23.4663 16.8544 23.4713C16.5378 23.463 16.2266 23.5535 15.9637 23.73C15.7066 23.9181 15.5104 24.1776 15.3994 24.4763V24.4763Z" fill="#4D7471"/>
</g>
<defs>
<clipPath id="clip0_1_14">
<rect width="30" height="30" fill="white"/>
</clipPath>
</defs>
</svg>
