<svg width="19" height="19" viewBox="0 0 19 19" fill="none" xmlns="http://www.w3.org/2000/svg">
<path d="M3.5625 17.8125H10.6875C11.0023 17.8122 11.3042 17.687 11.5268 17.4643C11.7495 17.2417 11.8747 16.9398 11.875 16.625V14.8438H10.6875V16.625H3.5625V2.375H10.6875V4.15625H11.875V2.375C11.8747 2.06015 11.7495 1.75829 11.5268 1.53566C11.3042 1.31303 11.0023 1.18781 10.6875 1.1875H3.5625C3.24765 1.18781 2.94579 1.31303 2.72316 1.53566C2.50053 1.75829 2.37531 2.06015 2.375 2.375V16.625C2.37531 16.9398 2.50053 17.2417 2.72316 17.4643C2.94579 17.687 3.24765 17.8122 3.5625 17.8125Z" fill="black"/>
<path d="M12.2229 12.2229L14.3521 10.0938H5.9375V8.90625H14.3521L12.2229 6.77706L13.0625 5.9375L16.625 9.5L13.0625 13.0625L12.2229 12.2229Z" fill="black"/>
</svg>
