<svg width="178" height="43" viewBox="0 0 178 43" fill="none" xmlns="http://www.w3.org/2000/svg">
<path fill-rule="evenodd" clip-rule="evenodd" d="M5.27018 7.09918C3.88303 8.06672 2.75668 9.34678 1.98719 10.8302C1.2177 12.3136 0.827906 13.9563 0.851059 15.6182V27.2975C0.819373 29.1604 1.30782 30.9966 2.26419 32.6101C3.22057 34.2235 4.60894 35.5534 6.28094 36.4577L15.3307 41.5417C16.9683 42.496 18.8407 43 20.7489 43C22.657 43 24.5295 42.496 26.167 41.5417L35.2168 36.4577C36.8827 35.5485 38.2649 34.2168 39.2168 32.6041C40.1686 30.9913 40.6546 29.1576 40.6232 27.2975V15.6182C40.6463 13.9563 40.2565 12.3136 39.487 10.8302C38.7176 9.34678 37.5912 8.06672 36.204 7.09918V26.1754C36.241 27.6251 35.8735 29.0574 35.1408 30.3196C34.4082 31.5819 33.3377 32.6269 32.0435 33.3433L24.9917 37.3051C23.7162 38.0474 22.2582 38.4394 20.7724 38.4394C19.2866 38.4394 17.8286 38.0474 16.5531 37.3051L9.50126 33.3433C8.20629 32.6395 7.12991 31.6088 6.38534 30.3596C5.64078 29.1103 5.25555 27.6886 5.27018 26.2441V7.09918ZM18.5275 0.229007C19.2471 0.084933 19.9791 0.00824749 20.7136 0C21.4404 0.00699065 22.1648 0.083697 22.8762 0.229007V22.8319C22.8784 23.0386 22.8254 23.2423 22.7224 23.423C22.6194 23.6037 22.4698 23.7551 22.2885 23.8624L21.2777 24.4349C21.0948 24.5352 20.8883 24.5879 20.6783 24.5879C20.4684 24.5879 20.2619 24.5352 20.079 24.4349L19.0682 23.8624C18.8825 23.758 18.7283 23.6078 18.621 23.4269C18.5137 23.246 18.4572 23.0408 18.457 22.8319V0.229007H18.5275ZM9.6893 4.62592L14.1084 2.12976V23.9769C14.1001 24.5964 14.264 25.2066 14.5826 25.7428C14.9012 26.279 15.3628 26.7212 15.9184 27.0227L18.9507 28.7173C19.495 29.0317 20.1161 29.1977 20.7489 29.1977C21.3816 29.1977 22.0028 29.0317 22.5471 28.7173L25.5558 27.0227C26.107 26.7182 26.5639 26.2747 26.8782 25.7387C27.1926 25.2027 27.3529 24.5941 27.3423 23.9769V2.12976L31.7614 4.62592V25.099C31.78 26.1326 31.5098 27.1516 30.9799 28.047C30.4499 28.9425 29.68 29.6808 28.7526 30.183L23.7224 33.0226C22.8125 33.551 21.7729 33.83 20.7136 33.83C19.6543 33.83 18.6147 33.551 17.7048 33.0226L12.6981 30.183C11.768 29.6819 10.9948 28.9445 10.4608 28.0492C9.92687 27.154 9.65211 26.1344 9.6658 25.099L9.6893 4.62592Z" fill="#F5F8FA"/>
<path fill-rule="evenodd" clip-rule="evenodd" d="M66.5769 15.3733H64.1389L61.1657 21.914C60.8089 22.728 60.4224 23.7745 60.1251 24.821C59.8278 23.9199 59.4412 22.9024 59.0845 22.1175L56.1113 15.5186H53.5246L59.471 27.8153H61.1657L66.6661 15.5186L66.5769 15.3733ZM81.7104 24.5303C80.6245 25.3826 79.2672 25.8353 77.875 25.8094C77.3491 25.8572 76.8187 25.8023 76.3147 25.6479C75.8107 25.4935 75.3432 25.2426 74.9392 24.9099C74.5353 24.5771 74.203 24.1692 73.9618 23.7098C73.7206 23.2504 73.5752 22.7487 73.5342 22.2338H83.1078C83.2122 21.7562 83.2621 21.2687 83.2565 20.7803C83.2791 20.0214 83.1389 19.2662 82.8449 18.5634C82.5509 17.8607 82.1096 17.2259 81.5494 16.7001C80.9892 16.1743 80.3225 15.769 79.5924 15.5105C78.8622 15.2519 78.0847 15.1458 77.3101 15.1989C76.4475 15.1561 75.5855 15.2922 74.7805 15.5982C73.9756 15.9042 73.2459 16.3733 72.6394 16.9745C72.033 17.5757 71.5634 18.2955 71.2616 19.0867C70.9597 19.8779 70.8324 20.7225 70.888 21.5652C70.843 22.4279 70.9868 23.29 71.3095 24.0941C71.6323 24.8981 72.1267 25.6257 72.7598 26.2281C73.3928 26.8306 74.15 27.2942 74.9808 27.5879C75.8116 27.8816 76.6969 27.9988 77.5777 27.9315C79.2792 27.9623 80.9356 27.395 82.2456 26.3327L81.5617 24.6176L81.7104 24.5303ZM77.3695 17.1466C77.8288 17.1104 78.2908 17.1677 78.7262 17.3151C79.1616 17.4624 79.561 17.6965 79.8991 18.0025C80.2373 18.3085 80.5068 18.6798 80.6906 19.0929C80.8744 19.506 80.9686 19.9519 80.9671 20.4024H73.3855C73.4907 19.4616 73.9643 18.5971 74.707 17.9901C75.4497 17.3832 76.4039 17.0809 77.3695 17.1466ZM89.9461 27.5827H92.1463V18.8617C92.591 18.3728 93.1357 17.9804 93.7451 17.71C94.3545 17.4397 95.0152 17.2972 95.6844 17.2919C98.0034 17.2919 99.1927 18.4838 99.1927 21.0129V27.6699H101.423V20.5187C101.423 16.7105 99.4603 15.1698 96.2195 15.1698C95.4584 15.1788 94.7067 15.3349 94.0076 15.6293C93.3085 15.9237 92.6759 16.3504 92.1463 16.8849V15.3733H89.9461V27.5827ZM117.954 27.5827H120.154V8.59998H117.954V15.9838C117.03 15.3611 115.922 15.0545 114.802 15.1117C113.912 15.0632 113.022 15.1954 112.188 15.4999C111.353 15.8044 110.592 16.2746 109.952 16.8808C109.313 17.4871 108.809 18.2163 108.471 19.0225C108.134 19.8287 107.971 20.6945 107.993 21.5652C107.936 22.3622 108.048 23.1622 108.321 23.9153C108.594 24.6684 109.023 25.3583 109.581 25.942C110.139 26.5258 110.814 26.9908 111.564 27.3081C112.314 27.6254 113.123 27.7881 113.94 27.7862C114.69 27.7815 115.43 27.6209 116.112 27.3152C116.794 27.0095 117.401 26.5656 117.894 26.0129V27.5827H117.954ZM114.415 25.7513C113.852 25.7705 113.291 25.6718 112.77 25.4617C112.249 25.2515 111.779 24.9349 111.394 24.5329C111.008 24.131 110.715 23.6531 110.533 23.1312C110.352 22.6093 110.287 22.0556 110.342 21.5071C110.329 20.9236 110.439 20.3438 110.664 19.8034C110.89 19.2629 111.226 18.7734 111.652 18.3648C112.078 17.9563 112.586 17.6374 113.143 17.4279C113.7 17.2183 114.295 17.1226 114.891 17.1466C115.957 17.1763 116.99 17.5097 117.864 18.1059V24.1234C117.417 24.6134 116.873 25.0102 116.265 25.2899C115.657 25.5696 114.998 25.7265 114.326 25.7513H114.415ZM128.419 27.5827H130.649V15.3733H128.419V27.5827ZM128.152 10.8093C128.143 10.9947 128.174 11.1799 128.243 11.3529C128.312 11.5259 128.417 11.6831 128.551 11.8143C128.685 11.9456 128.846 12.0481 129.023 12.1153C129.2 12.1825 129.389 12.2129 129.579 12.2047C129.852 12.1989 130.118 12.1146 130.344 11.9623C130.569 11.81 130.743 11.5964 130.845 11.3479C130.947 11.0995 130.973 10.8272 130.918 10.5649C130.863 10.3026 130.73 10.0619 130.537 9.87257C130.343 9.68326 130.097 9.55374 129.829 9.5001C129.56 9.44645 129.282 9.47106 129.028 9.57085C128.774 9.67063 128.555 9.84121 128.399 10.0614C128.244 10.2816 128.157 10.5416 128.152 10.8093ZM145.218 24.2687C145.218 25.3734 144.177 25.9548 143.017 25.9548C141.66 25.8777 140.374 25.3317 139.39 24.4141L138.141 25.9548C138.737 26.5603 139.453 27.0402 140.246 27.3652C141.038 27.6901 141.891 27.8532 142.75 27.8443C145.247 27.8443 147.566 26.7397 147.566 24.1524C147.566 19.8791 140.847 21.2454 140.847 18.5129C140.847 17.6989 141.59 17.0012 142.839 17.0012C143.942 17.0469 144.994 17.4685 145.812 18.1931L146.883 16.5361C145.672 15.5627 144.138 15.0561 142.571 15.1117C140.104 15.1117 138.35 16.4198 138.35 18.5419C138.35 23.0187 145.069 21.7978 145.069 24.3559L145.218 24.2687ZM154.137 22.9315C154.137 26.042 155.237 27.7862 158.032 27.7862C159.187 27.7988 160.315 27.4415 161.243 26.7687L160.589 25.1408C160.027 25.5663 159.338 25.8011 158.627 25.8094C157.051 25.8094 156.427 24.7048 156.427 22.9024V17.4082H160.975V15.3733H156.308V12.0012H154.078V22.9315H154.137ZM168.527 17.9605C169.559 17.3542 170.743 17.0421 171.947 17.0594C174.414 17.0594 174.92 18.6291 174.92 20.8966C174.022 20.3722 172.993 20.1006 171.947 20.1117C169.271 20.1117 167.249 21.5071 167.249 24.0071C167.209 24.5069 167.28 25.0093 167.457 25.4799C167.634 25.9505 167.912 26.3784 168.273 26.7343C168.635 27.0901 169.07 27.3657 169.55 27.5422C170.03 27.7188 170.543 27.7921 171.055 27.7571C171.813 27.796 172.569 27.6582 173.262 27.3549C173.955 27.0516 174.564 26.5916 175.039 26.0129V27.5827H177.15V20.0826C177.15 16.914 175.901 15.1117 172.363 15.1117C170.899 15.1104 169.462 15.4918 168.2 16.2163L168.795 17.9605H168.527ZM171.501 25.8094C170.073 25.8094 169.271 25.0536 169.271 23.8908C169.271 22.728 170.609 21.885 171.917 21.885C172.914 21.8512 173.896 22.1371 174.712 22.6989V24.2396C174.35 24.7117 173.884 25.0979 173.349 25.3697C172.813 25.6415 172.222 25.7918 171.619 25.8094H171.501Z" fill="#F5F8FA"/>
</svg>
