<svg width="30" height="30" viewBox="0 0 30 30" fill="none" xmlns="http://www.w3.org/2000/svg">
<g clip-path="url(#clip0_1_6)">
<path d="M11.25 16.875C11.25 16.6264 11.3488 16.3879 11.5246 16.2121C11.7004 16.0363 11.9389 15.9375 12.1875 15.9375H17.8125C18.0611 15.9375 18.2996 16.0363 18.4754 16.2121C18.6512 16.3879 18.75 16.6264 18.75 16.875C18.75 17.1236 18.6512 17.3621 18.4754 17.5379C18.2996 17.7137 18.0611 17.8125 17.8125 17.8125H12.1875C11.9389 17.8125 11.7004 17.7137 11.5246 17.5379C11.3488 17.3621 11.25 17.1236 11.25 16.875ZM7.22625 7.77375C7.13909 7.68659 7.03561 7.61744 6.92172 7.57027C6.80783 7.5231 6.68577 7.49882 6.5625 7.49882C6.43923 7.49882 6.31717 7.5231 6.20328 7.57027C6.0894 7.61744 5.98592 7.68659 5.89875 7.77375C5.81159 7.86092 5.74244 7.9644 5.69527 8.07828C5.6481 8.19217 5.62382 8.31423 5.62382 8.4375C5.62382 8.56077 5.6481 8.68283 5.69527 8.79672C5.74244 8.91061 5.81159 9.01409 5.89875 9.10125L8.98688 12.1875L5.89875 15.2738C5.81159 15.3609 5.74244 15.4644 5.69527 15.5783C5.6481 15.6922 5.62382 15.8142 5.62382 15.9375C5.62382 16.0608 5.6481 16.1828 5.69527 16.2967C5.74244 16.4106 5.81159 16.5141 5.89875 16.6013C6.07479 16.7773 6.31355 16.8762 6.5625 16.8762C6.68577 16.8762 6.80783 16.8519 6.92172 16.8047C7.03561 16.7576 7.13909 16.6884 7.22625 16.6013L10.9763 12.8513C11.0636 12.7642 11.1328 12.6607 11.1801 12.5468C11.2274 12.4329 11.2517 12.3108 11.2517 12.1875C11.2517 12.0642 11.2274 11.9421 11.1801 11.8282C11.1328 11.7143 11.0636 11.6108 10.9763 11.5238L7.22625 7.77375V7.77375Z" fill="#4D7471"/>
<path d="M3.75 1.875C2.75544 1.875 1.80161 2.27009 1.09835 2.97335C0.395088 3.67661 0 4.63044 0 5.625L0 24.375C0 25.3696 0.395088 26.3234 1.09835 27.0266C1.80161 27.7299 2.75544 28.125 3.75 28.125H26.25C27.2446 28.125 28.1984 27.7299 28.9016 27.0266C29.6049 26.3234 30 25.3696 30 24.375V5.625C30 4.63044 29.6049 3.67661 28.9016 2.97335C28.1984 2.27009 27.2446 1.875 26.25 1.875H3.75ZM26.25 3.75C26.7473 3.75 27.2242 3.94754 27.5758 4.29917C27.9275 4.65081 28.125 5.12772 28.125 5.625V24.375C28.125 24.8723 27.9275 25.3492 27.5758 25.7008C27.2242 26.0525 26.7473 26.25 26.25 26.25H3.75C3.25272 26.25 2.77581 26.0525 2.42417 25.7008C2.07254 25.3492 1.875 24.8723 1.875 24.375V5.625C1.875 5.12772 2.07254 4.65081 2.42417 4.29917C2.77581 3.94754 3.25272 3.75 3.75 3.75H26.25Z" fill="#4D7471"/>
</g>
<defs>
<clipPath id="clip0_1_6">
<rect width="30" height="30" fill="white"/>
</clipPath>
</defs>
</svg>
