<svg width="30" height="30" viewBox="0 0 30 30" fill="none" xmlns="http://www.w3.org/2000/svg">
<path d="M14.2031 18.5039C15.4609 17.6683 16.4163 16.45 16.9279 15.0293C17.4395 13.6085 17.4801 12.0608 17.0437 10.6151C16.6073 9.16951 15.7171 7.90278 14.5048 7.00242C13.2925 6.10206 11.8226 5.61591 10.3125 5.61591C8.80243 5.61591 7.33248 6.10206 6.12019 7.00242C4.9079 7.90278 4.01768 9.16951 3.58127 10.6151C3.14487 12.0608 3.18546 13.6085 3.69705 15.0293C4.20864 16.45 5.16405 17.6683 6.42187 18.5039C4.27613 19.293 2.42353 20.7202 1.11328 22.5937C1.02788 22.6927 0.964114 22.8084 0.926076 22.9335C0.888038 23.0585 0.876569 23.1901 0.892403 23.3199C0.908238 23.4496 0.951027 23.5746 1.01802 23.6868C1.08502 23.7991 1.17474 23.896 1.28143 23.9715C1.38812 24.047 1.50942 24.0994 1.63754 24.1253C1.76567 24.1511 1.89778 24.1499 2.0254 24.1217C2.15302 24.0935 2.27333 24.0389 2.37861 23.9614C2.48389 23.8839 2.5718 23.7853 2.63671 23.6719C3.50305 22.4411 4.65263 21.4367 5.98851 20.7434C7.3244 20.0501 8.80741 19.6882 10.3125 19.6882C11.8176 19.6882 13.3006 20.0501 14.6365 20.7434C15.9724 21.4367 17.1219 22.4411 17.9883 23.6719C18.0532 23.7853 18.1411 23.8839 18.2464 23.9614C18.3517 24.0389 18.472 24.0935 18.5996 24.1217C18.7272 24.1499 18.8593 24.1511 18.9874 24.1253C19.1156 24.0994 19.2369 24.047 19.3436 23.9715C19.4502 23.896 19.54 23.7991 19.607 23.6868C19.674 23.5746 19.7168 23.4496 19.7326 23.3199C19.7484 23.1901 19.737 23.0585 19.6989 22.9335C19.6609 22.8084 19.5971 22.6927 19.5117 22.5937C18.2015 20.7202 16.3489 19.293 14.2031 18.5039V18.5039ZM5.15625 12.6562C5.15625 11.6364 5.45865 10.6395 6.02523 9.79159C6.59181 8.94365 7.3971 8.28276 8.33928 7.8925C9.28147 7.50223 10.3182 7.40012 11.3184 7.59908C12.3186 7.79803 13.2374 8.28911 13.9585 9.01023C14.6796 9.73134 15.1707 10.6501 15.3697 11.6503C15.5686 12.6505 15.4665 13.6873 15.0762 14.6295C14.686 15.5716 14.0251 16.3769 13.1772 16.9435C12.3292 17.5101 11.3323 17.8125 10.3125 17.8125C8.94497 17.8125 7.63346 17.2693 6.66648 16.3023C5.69949 15.3353 5.15625 14.0238 5.15625 12.6562ZM28.8398 23.8945C28.7402 23.9663 28.6272 24.0175 28.5075 24.0451C28.3878 24.0728 28.2639 24.0764 28.1428 24.0557C28.0217 24.0349 27.906 23.9903 27.8024 23.9244C27.6987 23.8586 27.6092 23.7727 27.5391 23.6719C26.6721 22.4417 25.5224 21.4377 24.1867 20.7444C22.8509 20.051 21.3682 19.6886 19.8633 19.6875C19.6146 19.6875 19.3762 19.5887 19.2004 19.4129C19.0245 19.2371 18.9258 18.9986 18.9258 18.75C18.9258 18.5014 19.0245 18.2629 19.2004 18.0871C19.3762 17.9113 19.6146 17.8125 19.8633 17.8125C21.2308 17.8125 22.5423 17.2693 23.5093 16.3023C24.4763 15.3353 25.0195 14.0238 25.0195 12.6562C25.0195 11.2887 24.4763 9.97721 23.5093 9.01023C22.5423 8.04324 21.2308 7.5 19.8633 7.5C19.3924 7.50313 18.9238 7.56614 18.4687 7.6875C18.3502 7.72149 18.2262 7.73177 18.1037 7.71776C17.9813 7.70375 17.8628 7.66572 17.755 7.60586C17.6472 7.54599 17.5523 7.46546 17.4757 7.36887C17.3991 7.27228 17.3423 7.16153 17.3086 7.04297C17.2431 6.80372 17.2739 6.54835 17.3944 6.33153C17.5149 6.1147 17.7154 5.95364 17.9531 5.88281C18.5761 5.71507 19.2181 5.62842 19.8633 5.625C21.3749 5.61956 22.8479 6.10223 24.0632 7.00123C25.2784 7.90022 26.171 9.16749 26.6082 10.6145C27.0453 12.0616 27.0036 13.6111 26.4894 15.0326C25.9751 16.454 25.0157 17.6715 23.7539 18.5039C25.901 19.2962 27.7565 20.7225 29.0742 22.5937C29.2149 22.7976 29.2692 23.0488 29.2253 23.2925C29.1813 23.5362 29.0428 23.7526 28.8398 23.8945V23.8945Z" fill="#4D7471"/>
</svg>
